<?xml version="1.0" encoding="utf-8"?>
<!-- Generator: Adobe Illustrator 21.1.0, SVG Export Plug-In . SVG Version: 6.00 Build 0)  -->
<svg version="1.1" id="Layer_1" xmlns="http://www.w3.org/2000/svg" xmlns:xlink="http://www.w3.org/1999/xlink" x="0px" y="0px"
	 viewBox="0 0 62 62" style="enable-background:new 0 0 62 62;" xml:space="preserve">
<style type="text/css">
	.st0{fill:#3594F2;}
</style>
<g>
	<path class="st0" d="M31.2,0.2c-17,0-30.8,13.8-30.8,30.8c0,17,13.8,30.8,30.8,30.8c17,0,30.8-13.8,30.8-30.8
		C62,13.9,48.2,0.2,31.2,0.2z M31.2,60.2C15.1,60.2,2,47,2,30.9C2,14.8,15.1,1.7,31.2,1.7c16.1,0,29.2,13.1,29.2,29.2
		C60.5,47,47.3,60.2,31.2,60.2z"/>
	<path class="st0" d="M28.6,14.3c-0.4-0.4-1-0.7-1.6-0.7c-0.6,0-1.2,0.2-1.7,0.7L23,16.5c-0.3,0.3-0.3,0.6-0.1,0.9
		c1.2,1.6,1,3.8-0.4,5.2c-0.7,0.7-1.7,1.2-2.8,1.2c-0.8,0-1.7-0.3-2.4-0.8c-0.1-0.1-0.3-0.1-0.4-0.1c-0.2,0-0.4,0.1-0.5,0.2
		l-2.2,2.2c-0.9,0.9-0.9,2.4,0,3.3l19.2,19.2c0.4,0.5,1,0.7,1.6,0.7c0.6,0,1.2-0.3,1.6-0.7l2.2-2.2c0.3-0.3,0.3-0.6,0.1-0.9
		c-1.2-1.6-1-3.8,0.4-5.2c0.7-0.7,1.7-1.2,2.8-1.2c0.9,0,1.7,0.3,2.4,0.8c0.1,0.1,0.3,0.1,0.4,0.1c0.2,0,0.4-0.1,0.5-0.2l2.2-2.2
		c0.9-0.9,0.9-2.4,0-3.3L28.6,14.3z M44.9,37.5c-0.8-0.4-1.7-0.7-2.6-0.7c-1.4,0-2.8,0.6-3.9,1.6c-1.7,1.7-2.1,4.3-0.9,6.5l0,0.1
		l-1.8,1.8C35.5,46.9,35.3,47,35,47s-0.5-0.1-0.6-0.3L21.3,33.6l12.3-12.3l13.2,13.2c0.2,0.1,0.3,0.4,0.3,0.6c0,0.2-0.1,0.5-0.3,0.6
		L44.9,37.5L44.9,37.5z M17.2,24.5c0.8,0.4,1.7,0.7,2.6,0.7c1.4,0,2.8-0.6,3.9-1.6c1.7-1.7,2.1-4.3,0.9-6.5l0-0.1l1.8-1.8
		c0.2-0.2,0.4-0.3,0.7-0.3c0.2,0,0.5,0.1,0.6,0.3l5,5L20.3,32.5l-5-5c-0.2-0.2-0.3-0.4-0.3-0.6c0-0.2,0.1-0.5,0.3-0.6L17.2,24.5
		L17.2,24.5z"/>
	
		<rect x="27.5" y="32.1" transform="matrix(0.7069 -0.7073 0.7073 0.7069 -13.5763 32.824)" class="st0" width="10.7" height="1.4"/>
</g>
</svg>
